<?xml version="1.0" encoding="utf-8"?>
<!-- Generator: Adobe Illustrator 22.0.1, SVG Export Plug-In . SVG Version: 6.00 Build 0)  -->
<svg version="1.1" id="Layer_1" xmlns="http://www.w3.org/2000/svg" xmlns:xlink="http://www.w3.org/1999/xlink" x="0px" y="0px"
	 viewBox="0 0 1534.1 598" style="enable-background:new 0 0 1534.1 598;" xml:space="preserve">
<style type="text/css">
	.st0{fill:#333333;}
</style>
<g>
	<path class="st0" d="M225,237.5c-15,0-25.8,5-25.8,16.7c0,33.7,118.3,16.7,117.8,95.8c0,45.8-40.4,70-91.2,70
		c-36.2,0-71.6-10.8-97-31.2l20.8-43.3c23.3,17.9,53.3,27.9,77.9,27.9c16.2,0,28.3-5.4,28.3-17.5c0-35.8-116.2-16.7-116.2-95.4
		c0-46.2,39.6-70,88.3-70c30.8,0,62.5,9.2,87.4,25l-22.1,43.7C268.8,245.4,243.8,237.5,225,237.5z"/>
	<path class="st0" d="M498.6,404.9c-16.7,9.6-37.5,15.4-58.3,15.4c-40,0-70.4-22.9-70.4-69.1V247.5h-31.2v-44.1H370v-61.6h63.7v61.6
		h60.8v44.6h-60.8v92.4c0,18.7,7.9,26.2,21.7,25.8c8.3,0,18.3-2.9,30-8.3L498.6,404.9z"/>
	<path class="st0" d="M675.6,190.9v60.4c-45.8-4.2-74.1,20.4-74.1,58.3v107.9h-64.1v-224h64.1v40.4
		C616.9,206.3,642.3,191.3,675.6,190.9z"/>
	<path class="st0" d="M849.3,404.9c-16.7,9.6-37.5,15.4-58.3,15.4c-40,0-70.4-22.9-70.4-69.1V247.5h-31.2v-44.1h31.2v-61.6h63.7
		v61.6h60.8v44.6h-60.8v92.4c0,18.7,7.9,26.2,21.7,25.8c8.3,0,18.3-2.9,30-8.3L849.3,404.9z"/>
	<path class="st0" d="M1100.8,193.4v224h-63.7v-39.6c-15.4,28.3-41.2,42.1-75,42.1c-49.6,0-80.8-32.9-80.8-85.8V193.4h64.1v122.4
		c0,28.3,16.2,45.4,42.1,45.4c30.8-0.4,49.6-24.6,49.6-57.1V193.4H1100.8z"/>
	<path class="st0" d="M1405.2,306.7c0,67.9-41.2,113.3-104.1,113.3c-31.2,0-55.8-12.5-72-35v113.3h-64.1V193.4h64.1v32.9
		c15.8-22.5,40.4-35,70.8-35C1362.7,191.3,1405.2,237.5,1405.2,306.7z M1340.2,304.6c0-35.8-22.5-61.6-55.4-61.6
		s-55.8,25.4-55.8,61.6c0,37.1,22.9,62,55.8,62S1340.2,341.2,1340.2,304.6z"/>
</g>
</svg>
