<?xml version="1.0" encoding="utf-8"?>
<!-- Generator: Adobe Illustrator 22.0.1, SVG Export Plug-In . SVG Version: 6.00 Build 0)  -->
<svg version="1.1" id="Layer_1" xmlns="http://www.w3.org/2000/svg" xmlns:xlink="http://www.w3.org/1999/xlink" x="0px" y="0px"
	 viewBox="0 0 600 200" style="enable-background:new 0 0 600 200;" xml:space="preserve">
<g>
	<path d="M113.6,52.2c-1.2-2.1-3.3-2.1-4.5,0l-53.9,93.3c-1.2,2.1-0.2,3.9,2.2,3.9h83.9c2.5,0,3.5-1.7,2.2-3.9l-30-51.4
		c-1.2-2.1-3.3-2.1-4.5,0l-16.9,28.9c-1.2,2.1-0.2,3.9,2.2,3.9h4c2.5,0,5.5-1.7,6.8-3.9l3.9-6.6c1.2-2.1,3.3-2.1,4.5,0l10.4,17.9
		c1.2,2.1,0.2,3.9-2.2,3.9H76.9c-2.5,0-3.5-1.7-2.2-3.9l34.4-59.6c1.2-2.1,3.3-2.1,4.5,0l41,70.9c1.2,2.1,4.3,3.9,6.7,3.9h3.9
		c2.5,0,3.5-1.8,2.2-3.9L113.6,52.2z"/>
	<g>
		<path d="M210.1,118.5c4.2,4,12.8,7.9,20,7.9c6.6,0,9.7-2.3,9.7-5.9c0-4.1-5-5.5-11.6-6.8c-10-1.9-22.8-4.3-22.8-18.1
			c0-9.7,8.5-18.2,23.8-18.2c9.8,0,17.6,3.4,23.3,7.9l-6,10.4c-3.5-3.7-10.1-6.7-17.2-6.7c-5.5,0-9.1,2-9.1,5.4
			c0,3.6,4.6,4.9,11,6.2c10,1.9,23.3,4.6,23.3,19c0,10.7-9,18.6-25.1,18.6c-10.1,0-19.8-3.4-25.9-9L210.1,118.5z"/>
		<path d="M274.1,122.3V92.1h-9.6V78.8h9.6V62.9h15.4v15.8h11.8v13.3h-11.8v26.2c0,3.6,1.9,6.4,5.3,6.4c2.3,0,4.4-0.8,5.3-1.7
			l3.2,11.5c-2.3,2-6.4,3.7-12.7,3.7C279.9,138.2,274.1,132.7,274.1,122.3z"/>
		<path d="M317.1,78.8h15.2v7.9c4.1-5.2,11.3-9.2,18.5-9.2v14.9c-1.1-0.2-2.5-0.4-4.2-0.4c-5,0-11.8,2.8-14.3,6.5v38.3h-15.2V78.8z"
			/>
		<path d="M368.7,122.3V92.1h-9.6V78.8h9.6V62.9H384v15.8h11.8v13.3H384v26.2c0,3.6,1.9,6.4,5.3,6.4c2.3,0,4.4-0.8,5.3-1.7l3.2,11.5
			c-2.3,2-6.4,3.7-12.7,3.7C374.5,138.2,368.7,132.7,368.7,122.3z"/>
		<path d="M450.8,129.4c-4,4.4-10.9,8.8-20.4,8.8c-12.7,0-18.7-7-18.7-18.2V78.8h15.2v35.2c0,8,4.2,10.7,10.7,10.7
			c5.9,0,10.6-3.2,13.2-6.6V78.8H466v58h-15.2V129.4z"/>
		<path d="M486.5,158.8v-80h15.2v7.3c4.4-5.6,10.8-8.8,17.9-8.8c14.9,0,25.7,11,25.7,30.4s-10.8,30.5-25.7,30.5
			c-6.8,0-13.2-2.9-17.9-8.9v29.5H486.5z M514.8,90.9c-4.9,0-10.6,2.9-13.1,6.6V118c2.5,3.6,8.2,6.6,13.1,6.6
			c8.8,0,14.6-6.8,14.6-16.9C529.5,97.7,523.6,90.9,514.8,90.9z"/>
	</g>
</g>
</svg>
